<?xml version="1.0" encoding="UTF-8"?>
<svg version="1.1" xmlns="http://www.w3.org/2000/svg" width="178" height="148">
<path d="M0 0 C58.74 0 117.48 0 178 0 C178 48.84 178 97.68 178 148 C119.26 148 60.52 148 0 148 C0 99.16 0 50.32 0 0 Z " fill="#7E7E7E" transform="translate(0,0)"/>
<path d="M0 0 C58.74 0 117.48 0 178 0 C178 14.85 178 29.7 178 45 C172.121875 45.165 166.24375 45.33 160.1875 45.5 C158.33535889 45.55220703 156.48321777 45.60441406 154.57495117 45.65820312 C153.10595796 45.69925189 151.63696387 45.74026963 150.16796875 45.78125 C149.40601196 45.8028418 148.64405518 45.82443359 147.85900879 45.84667969 C144.90482894 45.92878096 141.95549219 46 139 46 C137.35 46.66 135.7 47.32 134 48 C134 51.63 134 55.26 134 59 C132.42532959 59.029729 132.42532959 59.029729 130.81884766 59.06005859 C126.93106739 59.13602198 123.04366597 59.22475298 119.15625 59.31738281 C117.47240671 59.35571104 115.78848045 59.39055712 114.10449219 59.421875 C111.68654694 59.46744287 109.26917472 59.52544923 106.8515625 59.5859375 C105.71867294 59.60326431 105.71867294 59.60326431 104.56289673 59.62094116 C100.32174802 59.60330066 100.32174802 59.60330066 97 62 C93.92434635 62.15879636 90.94253537 62.19176006 87.86865234 62.13525391 C86.92226395 62.12579239 85.97587555 62.11633087 85.00080872 62.10658264 C81.86232551 62.07281571 78.72423014 62.02472484 75.5859375 61.9765625 C73.41404239 61.95040459 71.2421364 61.92513685 69.07022095 61.90072632 C63.34572604 61.83398516 57.6214593 61.75511188 51.89715576 61.67376709 C45.03321741 61.57873032 38.1690903 61.49866365 31.30499268 61.41610718 C20.86980469 61.2889141 10.43503989 61.14262892 0 61 C0 40.87 0 20.74 0 0 Z " fill="#7D767A" transform="translate(0,0)"/>
<path d="M0 0 C58.74 0 117.48 0 178 0 C178 4.29 178 8.58 178 13 C172.92799335 13.14294839 167.85597177 13.2853507 162.78393555 13.42724609 C161.05834539 13.47559831 159.33275941 13.52409998 157.60717773 13.57275391 C155.12745225 13.64264551 152.64771224 13.71200036 150.16796875 13.78125 C149.39599655 13.80312378 148.62402435 13.82499756 147.82865906 13.84753418 C144.88459636 13.92933942 141.94536935 14 139 14 C136.525 14.99 136.525 14.99 134 16 C134 19.63 134 23.26 134 27 C132.95021973 27.01981934 131.90043945 27.03963867 130.81884766 27.06005859 C126.93106739 27.13602198 123.04366597 27.22475298 119.15625 27.31738281 C117.47240671 27.35571104 115.78848045 27.39055712 114.10449219 27.421875 C111.68654694 27.46744287 109.26917472 27.52544923 106.8515625 27.5859375 C105.71867294 27.60326431 105.71867294 27.60326431 104.56289673 27.62094116 C100.32174802 27.60330066 100.32174802 27.60330066 97 30 C93.92434635 30.15879636 90.94253537 30.19176006 87.86865234 30.13525391 C86.92226395 30.12579239 85.97587555 30.11633087 85.00080872 30.10658264 C81.86232551 30.07281571 78.72423014 30.02472484 75.5859375 29.9765625 C73.41404239 29.95040459 71.2421364 29.92513685 69.07022095 29.90072632 C63.34572604 29.83398516 57.6214593 29.75511188 51.89715576 29.67376709 C46.05913063 29.59293492 40.22097139 29.52350014 34.3828125 29.453125 C22.92170692 29.31327937 11.46084792 29.15957264 0 29 C0 19.43 0 9.86 0 0 Z " fill="#5D5D5D" transform="translate(0,32)"/>
<path d="M0 0 C0.33 -0.33 0.66 -0.66 1 -1 C3.6662603 -1.08855161 6.30647114 -1.11524673 8.97265625 -1.09765625 C9.77029892 -1.0962413 10.56794159 -1.09482635 11.38975525 -1.09336853 C13.94737435 -1.08775316 16.50490718 -1.07519812 19.0625 -1.0625 C20.79231645 -1.05748698 22.52213426 -1.05292373 24.25195312 -1.04882812 C28.50136239 -1.03862791 32.75058416 -1.01905568 37 -1 C37 4.61 37 10.22 37 16 C10.6 16 -15.8 16 -43 16 C-42.505 14.515 -42.505 14.515 -42 13 C-31.44 12.67 -20.88 12.34 -10 12 C-10 8.37 -10 4.74 -10 1 C-6.20492095 -0.46628054 -3.9028354 -1.30094513 0 0 Z M-141 15 C-108.99 15 -76.98 15 -44 15 C-43.505 16.485 -43.505 16.485 -43 18 C-75.34 18 -107.68 18 -141 18 C-141 17.01 -141 16.02 -141 15 Z " fill="#999999" transform="translate(141,46)"/>
<path d="M0 0 C27.72 0 55.44 0 84 0 C84 1.98 84 3.96 84 6 C78.92799335 6.14294839 73.85597177 6.2853507 68.78393555 6.42724609 C67.05834539 6.47559831 65.33275941 6.52409998 63.60717773 6.57275391 C61.12745225 6.64264551 58.64771224 6.71200036 56.16796875 6.78125 C55.39599655 6.80312378 54.62402435 6.82499756 53.82865906 6.84753418 C50.88459636 6.92933942 47.94536935 7 45 7 C42.525 7.99 42.525 7.99 40 9 C40 12.63 40 16.26 40 20 C38.95021973 20.01981934 37.90043945 20.03963867 36.81884766 20.06005859 C32.93106739 20.13602198 29.04366597 20.22475298 25.15625 20.31738281 C23.47240671 20.35571104 21.78848045 20.39055712 20.10449219 20.421875 C17.68654694 20.46744287 15.26917472 20.52544923 12.8515625 20.5859375 C11.71867294 20.60326431 11.71867294 20.60326431 10.56289673 20.62094116 C6.32174802 20.60330066 6.32174802 20.60330066 3 23 C-0.07565365 23.15879636 -3.05746463 23.19176006 -6.13134766 23.13525391 C-7.07773605 23.12579239 -8.02412445 23.11633087 -8.99919128 23.10658264 C-12.13767449 23.07281571 -15.27576986 23.02472484 -18.4140625 22.9765625 C-20.58595761 22.95040459 -22.7578636 22.92513685 -24.92977905 22.90072632 C-30.65427396 22.83398516 -36.3785407 22.75511188 -42.10284424 22.67376709 C-47.94086937 22.59293492 -53.77902861 22.52350014 -59.6171875 22.453125 C-71.0782858 22.31327946 -82.53917542 22.16062523 -94 22 C-94 21.67 -94 21.34 -94 21 C-61.99 21 -29.98 21 3 21 C3 20.34 3 19.68 3 19 C1.515 18.505 1.515 18.505 0 18 C0 13.38 0 8.76 0 4 C1.65 3.34 3.3 2.68 5 2 C3.35 1.67 1.7 1.34 0 1 C0 0.67 0 0.34 0 0 Z " fill="#9B9B9B" transform="translate(94,39)"/>
<path d="M0 0 C7.33333333 0 14.66666667 0 22 0 C23.134375 -0.04125 24.26875 -0.0825 25.4375 -0.125 C29 0 29 0 31 2 C31.26991906 4.68839385 31.08737357 7.29141936 31 10 C25.07707786 10.73724141 19.3235701 11.14235725 13.35913086 11.11352539 C12.54827026 11.11367142 11.73740967 11.11381744 10.90197754 11.1139679 C8.25623782 11.11327842 5.61057098 11.10553182 2.96484375 11.09765625 C1.11682677 11.09578864 -0.73119072 11.09436635 -2.57920837 11.09336853 C-7.4173624 11.0895704 -12.25548588 11.0797635 -17.09362793 11.06866455 C-22.04093004 11.058392 -26.98823714 11.05385844 -31.93554688 11.04882812 C-41.62371125 11.03813855 -51.31185308 11.02109499 -61 11 C-61 8.69 -61 6.38 -61 4 C-46.48 4 -31.96 4 -17 4 C-17 3.34 -17 2.68 -17 2 C-11.39 2 -5.78 2 0 2 C0 1.34 0 0.68 0 0 Z " fill="#3A3A3A" transform="translate(61,48)"/>
<path d="M0 0 C26.68079742 -0.16944327 53.32847641 0.31522753 80 1 C79.67 1.99 79.34 2.98 79 4 C79.99 4.66 80.98 5.32 82 6 C79.625 6.625 79.625 6.625 77 7 C76.01 6.01 76.01 6.01 75 5 C72.31160615 4.73008094 69.70858064 4.91262643 67 5 C67 4.34 67 3.68 67 3 C64.69 3 62.38 3 60 3 C60.66 3.66 61.32 4.32 62 5 C56.49909405 8.12551474 56.49909405 8.12551474 54.02734375 7.50390625 C51.1002344 6.77635884 49.13981861 7.99588612 46.48828125 9.2109375 C37.09223591 12.19053116 26.64741346 10.90492737 16.9375 10.5625 C15.29233661 10.50917927 13.64715427 10.45643986 12.00195312 10.40429688 C8.00105195 10.27623819 4.00049 10.14029551 0 10 C0 6.7 0 3.4 0 0 Z M65 5 C67 6 67 6 67 6 Z " fill="#656565" transform="translate(0,39)"/>
<path d="M0 0 C4.62 0 9.24 0 14 0 C13 4 13 4 10.4375 5.75 C9.2309375 6.36875 9.2309375 6.36875 8 7 C8.99 7.99 8.99 7.99 10 9 C10.1953125 11.3828125 10.1953125 11.3828125 10.125 14.125 C10.10695312 15.03507812 10.08890625 15.94515625 10.0703125 16.8828125 C10.04710937 17.58148438 10.02390625 18.28015625 10 19 C8.95021973 19.01981934 7.90043945 19.03963867 6.81884766 19.06005859 C2.93106739 19.13602198 -0.95633403 19.22475298 -4.84375 19.31738281 C-6.52759329 19.35571104 -8.21151955 19.39055712 -9.89550781 19.421875 C-12.31345306 19.46744287 -14.73082528 19.52544923 -17.1484375 19.5859375 C-18.28132706 19.60326431 -18.28132706 19.60326431 -19.43710327 19.62094116 C-23.67825198 19.60330066 -23.67825198 19.60330066 -27 22 C-30.07565365 22.15879636 -33.05746463 22.19176006 -36.13134766 22.13525391 C-37.07773605 22.12579239 -38.02412445 22.11633087 -38.99919128 22.10658264 C-42.13767449 22.07281571 -45.27576986 22.02472484 -48.4140625 21.9765625 C-50.58595761 21.95040459 -52.7578636 21.92513685 -54.92977905 21.90072632 C-60.65427396 21.83398516 -66.3785407 21.75511188 -72.10284424 21.67376709 C-77.94086937 21.59293492 -83.77902861 21.52350014 -89.6171875 21.453125 C-101.0782858 21.31327946 -112.53917542 21.16062523 -124 21 C-124 20.67 -124 20.34 -124 20 C-91.99 20 -59.98 20 -27 20 C-27 19.34 -27 18.68 -27 18 C-28.485 17.505 -28.485 17.505 -30 17 C-29.01 16.67 -28.02 16.34 -27 16 C-26.67 15.34 -26.34 14.68 -26 14 C-23.4375 13.375 -23.4375 13.375 -21 13 C-21 12.01 -21 11.02 -21 10 C-20.34 10 -19.68 10 -19 10 C-19 9.34 -19 8.68 -19 8 C-15.63408134 9.44253657 -13.48952921 11.33264727 -11 14 C-10.67 12.68 -10.34 11.36 -10 10 C-9.01 10 -8.02 10 -7 10 C-7.27617533 8.05925139 -7.27617533 8.05925139 -8 6 C-8.99 5.34 -9.98 4.68 -11 4 C-10.67 3.34 -10.34 2.68 -10 2 C-6.7 2 -3.4 2 0 2 C0 1.34 0 0.68 0 0 Z " fill="#0B0B0B" transform="translate(124,40)"/>
<path d="M0 0 C18.15 0 36.3 0 55 0 C55 1.65 55 3.3 55 5 C52.03 5 49.06 5 46 5 C46.98267859 6.20561184 46.98267859 6.20561184 48.84765625 6.09765625 C50.8984375 6.06510417 52.94921875 6.03255208 55 6 C55 6.99 55 7.98 55 9 C52.03 9 49.06 9 46 9 C46 9.66 46 10.32 46 11 C45.42926758 10.84152588 44.85853516 10.68305176 44.27050781 10.51977539 C42.02789812 10.00638657 39.96682085 9.79834104 37.671875 9.68359375 C36.87265625 9.64169922 36.0734375 9.59980469 35.25 9.55664062 C34.0125 9.49766602 34.0125 9.49766602 32.75 9.4375 C31.90953125 9.39431641 31.0690625 9.35113281 30.203125 9.30664062 C28.13559329 9.20091457 26.06781719 9.09998705 24 9 C24 9.66 24 10.32 24 11 C18.39 11 12.78 11 7 11 C7 11.66 7 12.32 7 13 C-7.52 13 -22.04 13 -37 13 C-37 12.01 -37 11.02 -37 10 C-35.91581787 10.00523682 -34.83163574 10.01047363 -33.71459961 10.01586914 C-29.6685469 10.03405333 -25.62249777 10.04548083 -21.57641602 10.05493164 C-19.82966503 10.05994129 -18.0829182 10.06675085 -16.33618164 10.07543945 C-13.81655854 10.08765319 -11.29699119 10.09326213 -8.77734375 10.09765625 C-8.00414291 10.10281754 -7.23094208 10.10797882 -6.43431091 10.11329651 C0.55268576 10.11400943 6.69027724 9.37173027 13.10546875 6.5234375 C15.41707254 5.88476759 16.72293201 6.36877992 19 7 C21.21771064 6.14209817 21.21771064 6.14209817 23 5 C22.34 4.34 21.68 3.68 21 3 C23.64458379 1.67770811 25.67761301 1.90322806 28.625 1.9375 C30.12933594 1.95103516 30.12933594 1.95103516 31.6640625 1.96484375 C32.43492188 1.97644531 33.20578125 1.98804688 34 2 C32.68 2.33 31.36 2.66 30 3 C31.00836062 4.23267348 31.00836062 4.23267348 33.06640625 4.09765625 C33.89011719 4.08605469 34.71382813 4.07445312 35.5625 4.0625 C36.38878906 4.05347656 37.21507813 4.04445313 38.06640625 4.03515625 C39.02353516 4.01775391 39.02353516 4.01775391 40 4 C40 4.66 40 5.32 40 6 C40.33 5.67 40.66 5.34 41 5 C40.505 3.515 40.505 3.515 40 2 C20.2 1.505 20.2 1.505 0 1 C0 0.67 0 0.34 0 0 Z " fill="#6A6A6A" transform="translate(37,39)"/>
<path d="M0 0 C12.21 0 24.42 0 37 0 C37 3.63 37 7.26 37 11 C22.81 11 8.62 11 -6 11 C-6 10.67 -6 10.34 -6 10 C-4.35 9.67 -2.7 9.34 -1 9 C-1.020625 7.88625 -1.04125 6.7725 -1.0625 5.625 C-1 2 -1 2 0 0 Z " fill="#787878" transform="translate(141,48)"/>
<path d="M0 0 C1.12019531 -0.00128906 2.24039063 -0.00257812 3.39453125 -0.00390625 C5.16763672 0.00189453 5.16763672 0.00189453 6.9765625 0.0078125 C8.69166016 0.00201172 8.69166016 0.00201172 10.44140625 -0.00390625 C26.07088917 0.01387473 26.07088917 0.01387473 31.6015625 1.1328125 C32.0965625 2.1228125 32.0965625 2.1228125 32.6015625 3.1328125 C25.3415625 3.1328125 18.0815625 3.1328125 10.6015625 3.1328125 C10.6015625 3.7928125 10.6015625 4.4528125 10.6015625 5.1328125 C8.6215625 4.8028125 6.6415625 4.4728125 4.6015625 4.1328125 C4.6015625 4.4628125 4.6015625 4.7928125 4.6015625 5.1328125 C-1.73177083 5.1328125 -8.06510417 5.1328125 -14.3984375 5.1328125 C-14.3984375 5.7928125 -14.3984375 6.4528125 -14.3984375 7.1328125 C-26.2784375 7.1328125 -38.1584375 7.1328125 -50.3984375 7.1328125 C-50.3984375 5.4828125 -50.3984375 3.8328125 -50.3984375 2.1328125 C-49.84942276 2.12250504 -49.30040802 2.11219757 -48.73475647 2.10157776 C-43.04122469 1.99373303 -37.34785829 1.87911801 -31.65454102 1.76049805 C-29.52729743 1.71707827 -27.4000174 1.67540857 -25.27270508 1.63549805 C-22.22205599 1.57796543 -19.17159161 1.51422283 -16.12109375 1.44921875 C-15.16380875 1.43250626 -14.20652374 1.41579376 -13.2202301 1.39857483 C-11.89897377 1.368657 -11.89897377 1.368657 -10.55102539 1.33813477 C-9.77159073 1.32259048 -8.99215607 1.3070462 -8.18910217 1.29103088 C-5.26506804 1.03267098 -3.37807492 0.00375759 0 0 Z " fill="#929292" transform="translate(50.3984375,50.8671875)"/>
<path d="M0 0 C0.33 -0.33 0.66 -0.66 1 -1 C3.6662603 -1.08855161 6.30647114 -1.11524673 8.97265625 -1.09765625 C9.77029892 -1.0962413 10.56794159 -1.09482635 11.38975525 -1.09336853 C13.94737435 -1.08775316 16.50490718 -1.07519812 19.0625 -1.0625 C20.79231645 -1.05748698 22.52213426 -1.05292373 24.25195312 -1.04882812 C28.50133553 -1.03777875 32.75065312 -1.02050386 37 -1 C37 -0.01 37 0.98 37 2 C24.79 2 12.58 2 0 2 C0 5.3 0 8.6 0 12 C18.315 12.495 18.315 12.495 37 13 C37 13.33 37 13.66 37 14 C10.93 14 -15.14 14 -42 14 C-42 13.67 -42 13.34 -42 13 C-31.44 12.67 -20.88 12.34 -10 12 C-10 8.37 -10 4.74 -10 1 C-6.20492095 -0.46628054 -3.9028354 -1.30094513 0 0 Z " fill="#BEBEBE" transform="translate(141,46)"/>
<path d="M0 0 C30.36 0 60.72 0 92 0 C92 0.99 92 1.98 92 3 C61.64 3 31.28 3 0 3 C0 2.01 0 1.02 0 0 Z " fill="#A8A8A8" transform="translate(0,33)"/>
<path d="M0 0 C3.96 0 7.92 0 12 0 C12.66 1.65 13.32 3.3 14 5 C11.69 5 9.38 5 7 5 C7 5.66 7 6.32 7 7 C-7.52 7 -22.04 7 -37 7 C-37 5.35 -37 3.7 -37 2 C-24.79 2 -12.58 2 0 2 C0 1.34 0 0.68 0 0 Z " fill="#8D8D8D" transform="translate(37,41)"/>
<path d="M0 0 C13.2 0 26.4 0 40 0 C40 1.65 40 3.3 40 5 C34.92799335 5.14294839 29.85597177 5.2853507 24.78393555 5.42724609 C23.05834539 5.47559831 21.33275941 5.52409998 19.60717773 5.57275391 C17.12745225 5.64264551 14.64771224 5.71200036 12.16796875 5.78125 C11.39599655 5.80312378 10.62402435 5.82499756 9.82865906 5.84753418 C5.01851585 5.98119129 0.70883265 6.01812598 -4 5 C-3.67 4.01 -3.34 3.02 -3 2 C-2.01 2 -1.02 2 0 2 C0 1.34 0 0.68 0 0 Z M-6 6 C-3 7 -3 7 -3 7 Z " fill="#565656" transform="translate(138,40)"/>
<path d="M0 0 C0 0.99 0 1.98 0 3 C-5.61 3 -11.22 3 -17 3 C-17 3.66 -17 4.32 -17 5 C-31.52 5 -46.04 5 -61 5 C-61 4.01 -61 3.02 -61 2 C-59.91581787 2.00523682 -58.83163574 2.01047363 -57.71459961 2.01586914 C-53.6685469 2.03405333 -49.62249777 2.04548083 -45.57641602 2.05493164 C-43.82966503 2.05994129 -42.0829182 2.06675085 -40.33618164 2.07543945 C-37.81655854 2.08765319 -35.29699119 2.09326213 -32.77734375 2.09765625 C-32.00414291 2.10281754 -31.23094208 2.10797882 -30.43431091 2.11329651 C-24.45307507 2.11390681 -18.58636894 1.99463897 -13.125 -0.6875 C-8.44341762 -2.59685125 -4.67586625 -1.50450326 0 0 Z " fill="#9E9E9E" transform="translate(61,47)"/>
<path d="M0 0 C4.62 0 9.24 0 14 0 C13 4 13 4 10.4375 5.75 C9.633125 6.1625 8.82875 6.575 8 7 C8.66 7.66 9.32 8.32 10 9 C10.27450545 12.34896654 10.08628804 15.63476663 10 19 C6.7 19 3.4 19 0 19 C0.66 18.21625 1.32 17.4325 2 16.625 C4.20201441 14.28487188 4.20201441 14.28487188 4 12 C2.68 12 1.36 12 0 12 C0 11.34 0 10.68 0 10 C1.32 9.34 2.64 8.68 4 8 C3.67 6.02 3.34 4.04 3 2 C2.01 2 1.02 2 0 2 C0 1.34 0 0.68 0 0 Z M-10 2 C-6.7 2 -3.4 2 0 2 C-0.165 3.11375 -0.33 4.2275 -0.5 5.375 C-1.0455458 8.72032033 -1.0455458 8.72032033 -1 11 C-1.61875 11.12375 -2.2375 11.2475 -2.875 11.375 C-5.19120832 11.87197356 -5.19120832 11.87197356 -7 14 C-8.32 13.34 -9.64 12.68 -11 12 C-10.67 11.34 -10.34 10.68 -10 10 C-9.01 10 -8.02 10 -7 10 C-7.27617533 8.05925139 -7.27617533 8.05925139 -8 6 C-8.99 5.34 -9.98 4.68 -11 4 C-10.67 3.34 -10.34 2.68 -10 2 Z " fill="#090909" transform="translate(124,40)"/>
<path d="M0 0 C0.98613281 0.00322266 1.97226563 0.00644531 2.98828125 0.00976562 C4.02082031 0.01814453 5.05335937 0.02652344 6.1171875 0.03515625 C7.67759766 0.04192383 7.67759766 0.04192383 9.26953125 0.04882812 C11.84380712 0.06063673 14.41796896 0.0771055 16.9921875 0.09765625 C16.6621875 1.08765625 16.3321875 2.07765625 15.9921875 3.09765625 C16.9821875 3.75765625 17.9721875 4.41765625 18.9921875 5.09765625 C16.6171875 5.72265625 16.6171875 5.72265625 13.9921875 6.09765625 C13.3321875 5.43765625 12.6721875 4.77765625 11.9921875 4.09765625 C9.30379365 3.82773719 6.70076814 4.01028268 3.9921875 4.09765625 C3.9921875 3.43765625 3.9921875 2.77765625 3.9921875 2.09765625 C1.6821875 2.09765625 -0.6278125 2.09765625 -3.0078125 2.09765625 C-2.3478125 2.75765625 -1.6878125 3.41765625 -1.0078125 4.09765625 C-6.29108895 7.1693286 -6.29108895 7.1693286 -9.5078125 6.84765625 C-10.3328125 6.60015625 -11.1578125 6.35265625 -12.0078125 6.09765625 C-14.00678378 5.7582083 -16.00656889 5.42344009 -18.0078125 5.09765625 C-17.3684375 4.62328125 -16.7290625 4.14890625 -16.0703125 3.66015625 C-14.12487944 2.26026899 -14.12487944 2.26026899 -13.0078125 1.09765625 C-11.0078125 1.09765625 -9.0078125 1.09765625 -7.0078125 1.09765625 C-4.50284246 -0.15482877 -2.79927976 -0.01608781 0 0 Z M1.9921875 4.09765625 C3.9921875 5.09765625 3.9921875 5.09765625 3.9921875 5.09765625 Z M-19.0078125 6.09765625 C-16.6978125 6.09765625 -14.3878125 6.09765625 -12.0078125 6.09765625 C-12.0078125 6.42765625 -12.0078125 6.75765625 -12.0078125 7.09765625 C-14.3178125 7.42765625 -16.6278125 7.75765625 -19.0078125 8.09765625 C-19.0078125 7.43765625 -19.0078125 6.77765625 -19.0078125 6.09765625 Z M-63.0078125 8.09765625 C-48.4878125 8.09765625 -33.9678125 8.09765625 -19.0078125 8.09765625 C-19.0078125 8.42765625 -19.0078125 8.75765625 -19.0078125 9.09765625 C-28.03030316 10.50905398 -36.9812556 9.98068865 -46.0703125 9.66015625 C-47.71547589 9.60683552 -49.36065823 9.55409611 -51.00585938 9.50195312 C-55.00676055 9.37389444 -59.0073225 9.23795176 -63.0078125 9.09765625 C-63.0078125 8.76765625 -63.0078125 8.43765625 -63.0078125 8.09765625 Z " fill="#1B1B1B" transform="translate(63.0078125,39.90234375)"/>
<path d="M0 0 C1.98 0.33 3.96 0.66 6 1 C6 0.67 6 0.34 6 0 C12.0546875 -0.1953125 12.0546875 -0.1953125 14 0 C14.66 0.66 15.32 1.32 16 2 C16 1.34 16 0.68 16 0 C22.93 0 29.86 0 37 0 C37 0.33 37 0.66 37 1 C30.73 1 24.46 1 18 1 C17.67 2.32 17.34 3.64 17 5 C-3.46 5 -23.92 5 -45 5 C-45 4.67 -45 4.34 -45 4 C-33.12 4 -21.24 4 -9 4 C-9 3.34 -9 2.68 -9 2 C-6.03 2 -3.06 2 0 2 C0 1.34 0 0.68 0 0 Z " fill="#191919" transform="translate(45,54)"/>
<path d="M0 0 C12.21 0 24.42 0 37 0 C37 0.99 37 1.98 37 3 C22.81 3 8.62 3 -6 3 C-6 2.67 -6 2.34 -6 2 C-4.02 2 -2.04 2 0 2 C0 1.34 0 0.68 0 0 Z " fill="#4C4C4C" transform="translate(141,56)"/>
<path d="M0 0 C11.88 0 23.76 0 36 0 C36 0.99 36 1.98 36 3 C23.79 3 11.58 3 -1 3 C-0.67 2.01 -0.34 1.02 0 0 Z " fill="#A2A2A2" transform="translate(142,45)"/>
<path d="M0 0 C18.15 0 36.3 0 55 0 C55 1.65 55 3.3 55 5 C52.03 5 49.06 5 46 5 C46 5.66 46 6.32 46 7 C44.125 6.75 44.125 6.75 42 6 C41.34 4.68 40.68 3.36 40 2 C20.2 1.505 20.2 1.505 0 1 C0 0.67 0 0.34 0 0 Z " fill="#B0B0B0" transform="translate(37,39)"/>
<path d="M0 0 C0 2.64 0 5.28 0 8 C-1.65 8 -3.3 8 -5 8 C-5.33 9.32 -5.66 10.64 -6 12 C-7.65 12 -9.3 12 -11 12 C-10.9278125 11.37351562 -10.855625 10.74703125 -10.78125 10.1015625 C-10.6884375 9.28429688 -10.595625 8.46703125 -10.5 7.625 C-10.4071875 6.81289063 -10.314375 6.00078125 -10.21875 5.1640625 C-9.96647649 3.03087175 -9.96647649 3.03087175 -10 1 C-3.375 -1.125 -3.375 -1.125 0 0 Z M-14 11 C-13.01 11.33 -12.02 11.66 -11 12 C-11 12.66 -11 13.32 -11 14 C-11.99 13.67 -12.98 13.34 -14 13 C-14 12.34 -14 11.68 -14 11 Z " fill="#858585" transform="translate(129,42)"/>
<path d="M0 0 C2.64 0.33 5.28 0.66 8 1 C8 3.31 8 5.62 8 8 C6.68 8 5.36 8 4 8 C4 8.66 4 9.32 4 10 C1.69 10 -0.62 10 -3 10 C-3.08226668 6.95613276 -2.97608217 4.92824652 -2 2 C-1.34 2 -0.68 2 0 2 C0 1.34 0 0.68 0 0 Z " fill="#6A6A6A" transform="translate(109,44)"/>
<path d="M0 0 C2.64 0 5.28 0 8 0 C4.77208445 2.1519437 3.71599191 2.20086443 0 2 C0 1.34 0 0.68 0 0 Z M-10 2 C-6.7 2 -3.4 2 0 2 C-0.165 3.11375 -0.33 4.2275 -0.5 5.375 C-1.0455458 8.72032033 -1.0455458 8.72032033 -1 11 C-1.61875 11.12375 -2.2375 11.2475 -2.875 11.375 C-5.19120832 11.87197356 -5.19120832 11.87197356 -7 14 C-8.32 13.34 -9.64 12.68 -11 12 C-10.67 11.34 -10.34 10.68 -10 10 C-9.01 10 -8.02 10 -7 10 C-7.27617533 8.05925139 -7.27617533 8.05925139 -8 6 C-8.99 5.34 -9.98 4.68 -11 4 C-10.67 3.34 -10.34 2.68 -10 2 Z M3 2 C5 3 5 3 5 3 Z " fill="#030303" transform="translate(124,40)"/>
<path d="M0 0 C0 0.99 0 1.98 0 3 C-5.61 3 -11.22 3 -17 3 C-17 3.66 -17 4.32 -17 5 C-19.31 5 -21.62 5 -24 5 C-24 4.01 -24 3.02 -24 2 C-23.01 1.896875 -22.02 1.79375 -21 1.6875 C-18.08820014 1.30159881 -15.79298891 0.52327409 -13.125 -0.6875 C-8.44341762 -2.59685125 -4.67586625 -1.50450326 0 0 Z " fill="#898989" transform="translate(61,47)"/>
<path d="M0 0 C1.50433594 0.01353516 1.50433594 0.01353516 3.0390625 0.02734375 C3.80992188 0.03894531 4.58078125 0.05054688 5.375 0.0625 C4.055 0.3925 2.735 0.7225 1.375 1.0625 C2.38336062 2.29517348 2.38336062 2.29517348 4.44140625 2.16015625 C5.26511719 2.14855469 6.08882812 2.13695312 6.9375 2.125 C7.76378906 2.11597656 8.59007813 2.10695312 9.44140625 2.09765625 C10.39853516 2.08025391 10.39853516 2.08025391 11.375 2.0625 C8.61237632 4.82512368 6.40437912 4.68061333 2.5625 5.1875 C1.33917969 5.35507812 0.11585937 5.52265625 -1.14453125 5.6953125 C-4.01382808 5.99802171 -6.74563778 6.13928299 -9.625 6.0625 C-8.625 4.0625 -8.625 4.0625 -5.625 3.0625 C-6.285 2.4025 -6.945 1.7425 -7.625 1.0625 C-4.98041621 -0.25979189 -2.94738699 -0.03427194 0 0 Z " fill="#696969" transform="translate(65.625,40.9375)"/>
<path d="M0 0 C6.6 0 13.2 0 20 0 C20 0.99 20 1.98 20 3 C13.4 3 6.8 3 0 3 C0 2.01 0 1.02 0 0 Z " fill="#7D7D7D" transform="translate(63,55)"/>
<path d="M0 0 C13.5439795 -0.22203245 13.5439795 -0.22203245 20 1 C20.33 1.66 20.66 2.32 21 3 C13.74 3 6.48 3 -1 3 C-0.67 2.01 -0.34 1.02 0 0 Z M-1 3 C-1 3.66 -1 4.32 -1 5 C-2.32 4.67 -3.64 4.34 -5 4 C-3 3 -3 3 -1 3 Z " fill="#858585" transform="translate(62,51)"/>
<path d="M0 0 C0.99 0.33 1.98 0.66 3 1 C3 2.98 3 4.96 3 7 C1.25181409 7.22304441 -0.49870323 7.4278645 -2.25 7.625 C-3.22453125 7.74101563 -4.1990625 7.85703125 -5.203125 7.9765625 C-8 8 -8 8 -12 6 C-7.05 4.515 -7.05 4.515 -2 3 C-2 2.34 -2 1.68 -2 1 C-1.34 0.67 -0.68 0.34 0 0 Z " fill="#4E4E4E" transform="translate(126,51)"/>
<path d="M0 0 C4.62 0 9.24 0 14 0 C14 0.66 14 1.32 14 2 C12.9275 2.12375 11.855 2.2475 10.75 2.375 C7.16663645 2.7311586 7.16663645 2.7311586 5.0625 4.1875 C1.55918497 5.5675938 -1.47715349 4.05685395 -5 3 C-5 2.67 -5 2.34 -5 2 C-3.35 2 -1.7 2 0 2 C0 1.34 0 0.68 0 0 Z M-2 4 C-1.67 4.66 -1.34 5.32 -1 6 C-1.99 5.67 -2.98 5.34 -4 5 C-3.34 4.67 -2.68 4.34 -2 4 Z " fill="#454545" transform="translate(110,40)"/>
<path d="M0 0 C-0.125 1.75 -0.125 1.75 -1 4 C-3.875 6.3125 -3.875 6.3125 -7 8 C-7.99 7.67 -8.98 7.34 -10 7 C-9.6875 4.625 -9.6875 4.625 -9 2 C-5.5647952 -0.29013653 -4.014669 -0.17842973 0 0 Z " fill="#232323" transform="translate(138,40)"/>
<path d="M0 0 C3.96 0 7.92 0 12 0 C12.66 1.65 13.32 3.3 14 5 C9.38 5 4.76 5 0 5 C0 3.35 0 1.7 0 0 Z " fill="#B8B8B8" transform="translate(37,41)"/>
<path d="M0 0 C2.625 -0.1875 2.625 -0.1875 5 0 C5 1.65 5 3.3 5 5 C3.02 5 1.04 5 -1 5 C-1 5.66 -1 6.32 -1 7 C-2.32 6.67 -3.64 6.34 -5 6 C-5 5.34 -5 4.68 -5 4 C-4.01 3.67 -3.02 3.34 -2 3 C-1.34 2.01 -0.68 1.02 0 0 Z " fill="#858585" transform="translate(99,49)"/>
<path d="M0 0 C1.65 0 3.3 0 5 0 C4.67 0.99 4.34 1.98 4 3 C4.99 3.66 5.98 4.32 7 5 C4.625 5.625 4.625 5.625 2 6 C1.34 5.34 0.68 4.68 0 4 C-2.68839385 3.73008094 -5.29141936 3.91262643 -8 4 C-8 3.34 -8 2.68 -8 2 C-5.36 2 -2.72 2 0 2 C0 1.34 0 0.68 0 0 Z M-10 4 C-8 5 -8 5 -8 5 Z " fill="#010101" transform="translate(75,40)"/>
<path d="M0 0 C2.64 0 5.28 0 8 0 C8 0.99 8 1.98 8 3 C5.03 3 2.06 3 -1 3 C-0.67 2.01 -0.34 1.02 0 0 Z M-2 3 C-1.67 3.66 -1.34 4.32 -1 5 C-2.32 4.67 -3.64 4.34 -5 4 C-4.01 3.67 -3.02 3.34 -2 3 Z " fill="#A4A4A4" transform="translate(84,45)"/>
<path d="M0 0 C1.65 0 3.3 0 5 0 C5.33 1.32 5.66 2.64 6 4 C-0.625 5.25 -0.625 5.25 -4 3 C-3.01 2.67 -2.02 2.34 -1 2 C-0.67 1.34 -0.34 0.68 0 0 Z " fill="#656565" transform="translate(135,54)"/>
<path d="M0 0 C1.65 0.33 3.3 0.66 5 1 C4.01 1.495 4.01 1.495 3 2 C3 2.66 3 3.32 3 4 C2.01 4 1.02 4 0 4 C-0.33 4.66 -0.66 5.32 -1 6 C-1 5.34 -1 4.68 -1 4 C-1.99 3.67 -2.98 3.34 -4 3 C-3.01 2.67 -2.02 2.34 -1 2 C-0.67 1.34 -0.34 0.68 0 0 Z " fill="#404040" transform="translate(98,54)"/>
<path d="M0 0 C0.33 0.66 0.66 1.32 1 2 C-0.98 2 -2.96 2 -5 2 C-5 2.66 -5 3.32 -5 4 C-6.32 3.67 -7.64 3.34 -9 3 C-9 2.34 -9 1.68 -9 1 C-3.375 -1.125 -3.375 -1.125 0 0 Z " fill="#9D9D9D" transform="translate(140,46)"/>
<path d="M0 0 C0 0.33 0 0.66 0 1 C-5.28 1 -10.56 1 -16 1 C-16 0.67 -16 0.34 -16 0 C-10.03241883 -2.28545662 -6.07806891 -1.79172099 0 0 Z " fill="#AFAFAF" transform="translate(61,47)"/>
<path d="M0 0 C0 0.66 0 1.32 0 2 C-1.98 2 -3.96 2 -6 2 C-6 1.34 -6 0.68 -6 0 C-3.50907189 -1.24546405 -2.58919267 -0.7767578 0 0 Z M-7 2 C-6.67 2.66 -6.34 3.32 -6 4 C-7.32 3.67 -8.64 3.34 -10 3 C-9.01 2.67 -8.02 2.34 -7 2 Z " fill="#8F8F8F" transform="translate(104,46)"/>
<path d="M0 0 C2.31 0.33 4.62 0.66 7 1 C7 1.33 7 1.66 7 2 C4.69 2.33 2.38 2.66 0 3 C0 2.01 0 1.02 0 0 Z M-5 3 C-3.35 3 -1.7 3 0 3 C0 3.33 0 3.66 0 4 C-1.65 4 -3.3 4 -5 4 C-5 3.67 -5 3.34 -5 3 Z " fill="#3B3B3B" transform="translate(50,41)"/>
<path d="M0 0 C2.97 0 5.94 0 9 0 C5.99382731 3.00617269 3.17618402 2.59585316 -1 3 C-0.67 2.01 -0.34 1.02 0 0 Z " fill="#555555" transform="translate(68,43)"/>
</svg>
